<svg width="144" height="123" viewBox="0 0 144 123" fill="none" xmlns="http://www.w3.org/2000/svg">
<g filter="url(#filter0_d_2355_2275)">
<path d="M7.88043 33.7043C7.88043 34.9762 7.04891 35.9301 5.94022 35.9301C4.83152 35.9301 4 34.9762 4 33.7043C4 32.4324 4.83152 31.4785 5.94022 31.4785C7.04891 31.4785 7.88043 32.5384 7.88043 33.7043Z" fill="#FFCF2D"/>
<path d="M24.4185 33.7042C24.4185 34.9761 23.587 35.9299 22.4783 35.9299C21.3696 35.9299 20.5381 34.9761 20.5381 33.7042C20.5381 32.4324 21.3696 31.4785 22.4783 31.4785C23.4946 31.4785 24.4185 32.5384 24.4185 33.7042Z" fill="#FFCF2D"/>
<path d="M40.8643 33.7043C40.8643 34.9762 40.0328 35.9301 38.9241 35.9301C37.8154 35.9301 36.9839 34.9762 36.9839 33.7043C36.9839 32.4324 37.8154 31.4785 38.9241 31.4785C40.0328 31.4785 40.8643 32.5384 40.8643 33.7043Z" fill="#FFCF2D"/>
<path d="M57.4024 33.7043C57.4024 34.9762 56.5709 35.9301 55.4622 35.9301C54.3535 35.9301 53.522 34.9762 53.522 33.7043C53.522 32.4324 54.3535 31.4785 55.4622 31.4785C56.5709 31.4785 57.4024 32.5384 57.4024 33.7043Z" fill="#FFCF2D"/>
<path d="M73.94 33.7043C73.94 34.9762 73.1085 35.9301 71.9998 35.9301C70.8911 35.9301 70.0596 34.9762 70.0596 33.7043C70.0596 32.4324 70.8911 31.4785 71.9998 31.4785C73.0161 31.4785 73.94 32.5384 73.94 33.7043Z" fill="#FFCF2D"/>
<path d="M90.4781 33.7043C90.4781 34.9762 89.6466 35.9301 88.5379 35.9301C87.4292 35.9301 86.5977 34.9762 86.5977 33.7043C86.5977 32.4324 87.4292 31.4785 88.5379 31.4785C89.6466 31.4785 90.4781 32.5384 90.4781 33.7043Z" fill="#FFCF2D"/>
<path d="M106.924 33.7043C106.924 34.9762 106.092 35.9301 104.984 35.9301C103.875 35.9301 103.043 34.9762 103.043 33.7043C103.043 32.4324 103.875 31.4785 104.984 31.4785C106.092 31.4785 106.924 32.5384 106.924 33.7043Z" fill="#FFCF2D"/>
<path d="M123.462 33.7043C123.462 34.9762 122.63 35.9301 121.522 35.9301C120.413 35.9301 119.582 34.9762 119.582 33.7043C119.582 32.4324 120.413 31.4785 121.522 31.4785C122.63 31.4785 123.462 32.5384 123.462 33.7043Z" fill="#FFCF2D"/>
<path d="M140 33.7042C140 34.9761 139.169 35.9299 138.06 35.9299C136.951 35.9299 136.12 34.9761 136.12 33.7042C136.12 32.4324 136.951 31.4785 138.06 31.4785C139.076 31.4785 140 32.5384 140 33.7042Z" fill="#FFCF2D"/>
<path d="M7.88043 49.4974C7.88043 50.7693 7.04891 51.7233 5.94022 51.7233C4.83152 51.7233 4 50.7693 4 49.4974C4 48.2254 4.83152 47.2715 5.94022 47.2715C7.04891 47.2715 7.88043 48.2254 7.88043 49.4974Z" fill="#FFCF2D"/>
<path d="M24.4185 49.4973C24.4185 50.7692 23.587 51.7231 22.4783 51.7231C21.3696 51.7231 20.5381 50.7692 20.5381 49.4973C20.5381 48.2254 21.3696 47.2715 22.4783 47.2715C23.4946 47.2715 24.4185 48.2254 24.4185 49.4973Z" fill="#FFCF2D"/>
<path d="M40.8643 49.4974C40.8643 50.7693 40.0328 51.7233 38.9241 51.7233C37.8154 51.7233 36.9839 50.7693 36.9839 49.4974C36.9839 48.2254 37.8154 47.2715 38.9241 47.2715C40.0328 47.2715 40.8643 48.2254 40.8643 49.4974Z" fill="#FFCF2D"/>
<path d="M57.4024 49.4974C57.4024 50.7693 56.5709 51.7233 55.4622 51.7233C54.3535 51.7233 53.522 50.7693 53.522 49.4974C53.522 48.2254 54.3535 47.2715 55.4622 47.2715C56.5709 47.2715 57.4024 48.2254 57.4024 49.4974Z" fill="#FFCF2D"/>
<path d="M73.94 49.4974C73.94 50.7693 73.1085 51.7233 71.9998 51.7233C70.8911 51.7233 70.0596 50.7693 70.0596 49.4974C70.0596 48.2254 70.8911 47.2715 71.9998 47.2715C73.0161 47.2715 73.94 48.2254 73.94 49.4974Z" fill="#FFCF2D"/>
<path d="M90.4781 49.4974C90.4781 50.7693 89.6466 51.7233 88.5379 51.7233C87.4292 51.7233 86.5977 50.7693 86.5977 49.4974C86.5977 48.2254 87.4292 47.2715 88.5379 47.2715C89.6466 47.2715 90.4781 48.2254 90.4781 49.4974Z" fill="#FFCF2D"/>
<path d="M106.924 49.4974C106.924 50.7693 106.092 51.7233 104.984 51.7233C103.875 51.7233 103.043 50.7693 103.043 49.4974C103.043 48.2254 103.875 47.2715 104.984 47.2715C106.092 47.2715 106.924 48.2254 106.924 49.4974Z" fill="#FFCF2D"/>
<path d="M123.462 49.4974C123.462 50.7693 122.63 51.7233 121.522 51.7233C120.413 51.7233 119.582 50.7693 119.582 49.4974C119.582 48.2254 120.413 47.2715 121.522 47.2715C122.63 47.2715 123.462 48.2254 123.462 49.4974Z" fill="#FFCF2D"/>
<path d="M140 49.4973C140 50.7692 139.169 51.7231 138.06 51.7231C136.951 51.7231 136.12 50.7692 136.12 49.4973C136.12 48.2254 136.951 47.2715 138.06 47.2715C139.076 47.2715 140 48.2254 140 49.4973Z" fill="#FFCF2D"/>
<path d="M7.88043 2.22583C7.88043 3.49773 7.04891 4.45166 5.94022 4.45166C4.83152 4.45166 4 3.49773 4 2.22583C4 0.953927 4.83152 0 5.94022 0C7.04891 0 7.88043 0.953927 7.88043 2.22583Z" fill="#FFCF2D"/>
<path d="M24.4185 2.22583C24.4185 3.49773 23.587 4.45166 22.4783 4.45166C21.3696 4.45166 20.5381 3.49773 20.5381 2.22583C20.5381 0.953927 21.3696 0 22.4783 0C23.4946 0 24.4185 0.953927 24.4185 2.22583Z" fill="#FFCF2D"/>
<path d="M40.8643 2.22583C40.8643 3.49773 40.0328 4.45166 38.9241 4.45166C37.8154 4.45166 36.9839 3.49773 36.9839 2.22583C36.9839 0.953927 37.9078 0 38.9241 0C40.0328 0 40.8643 0.953927 40.8643 2.22583Z" fill="#FFCF2D"/>
<path d="M57.4024 2.22583C57.4024 3.49773 56.5709 4.45166 55.4622 4.45166C54.3535 4.45166 53.522 3.49773 53.522 2.22583C53.522 0.953927 54.4459 0 55.4622 0C56.4785 0 57.4024 0.953927 57.4024 2.22583Z" fill="#FFCF2D"/>
<path d="M73.94 2.22583C73.94 3.49773 73.1085 4.45166 71.9998 4.45166C70.8911 4.45166 70.0596 3.49773 70.0596 2.22583C70.0596 0.953927 70.8911 0 71.9998 0C73.0161 0 73.94 0.953927 73.94 2.22583Z" fill="#FFCF2D"/>
<path d="M90.4781 2.22583C90.4781 3.49773 89.6466 4.45166 88.5379 4.45166C87.4292 4.45166 86.5977 3.49773 86.5977 2.22583C86.5977 0.953927 87.4292 0 88.5379 0C89.6466 0 90.4781 0.953927 90.4781 2.22583Z" fill="#FFCF2D"/>
<path d="M106.924 2.22577C106.924 3.49764 106.092 4.45154 104.984 4.45154C103.875 4.45154 103.043 3.49764 103.043 2.22577C103.043 0.953901 103.875 0 104.984 0C106.092 0 106.924 0.953901 106.924 2.22577Z" fill="#FFCF2D"/>
<path d="M123.462 2.22583C123.462 3.49773 122.63 4.45166 121.522 4.45166C120.413 4.45166 119.582 3.49773 119.582 2.22583C119.582 0.953927 120.413 0 121.522 0C122.63 0 123.462 0.953927 123.462 2.22583Z" fill="#FFCF2D"/>
<path d="M140 2.22583C140 3.49773 139.169 4.45166 138.06 4.45166C136.951 4.45166 136.12 3.49773 136.12 2.22583C136.12 0.953927 136.951 0 138.06 0C139.076 0 140 0.953927 140 2.22583Z" fill="#FFCF2D"/>
<path d="M7.88045 18.0189C7.88045 19.2908 7.04892 20.2448 5.94022 20.2448C4.83152 20.2448 4 19.1848 4 18.0189C4 16.7469 4.83152 15.793 5.94022 15.793C7.04892 15.793 7.88045 16.7469 7.88045 18.0189Z" fill="#FFCF2D"/>
<path d="M24.4185 18.0189C24.4185 19.2908 23.587 20.2448 22.4783 20.2448C21.3696 20.2448 20.5381 19.2908 20.5381 18.0189C20.5381 16.7469 21.3696 15.793 22.4783 15.793C23.4946 15.793 24.4185 16.7469 24.4185 18.0189Z" fill="#FFCF2D"/>
<path d="M40.8643 18.0189C40.8643 19.2908 40.0328 20.2448 38.9241 20.2448C37.8154 20.2448 36.9839 19.2908 36.9839 18.0189C36.9839 16.7469 37.8154 15.793 38.9241 15.793C40.0328 15.793 40.8643 16.7469 40.8643 18.0189Z" fill="#FFCF2D"/>
<path d="M57.4024 18.0188C57.4024 19.2907 56.5709 20.2446 55.4622 20.2446C54.3535 20.2446 53.522 19.2907 53.522 18.0188C53.522 16.7469 54.3535 15.793 55.4622 15.793C56.5709 15.793 57.4024 16.7469 57.4024 18.0188Z" fill="#FFCF2D"/>
<path d="M73.94 18.0189C73.94 19.2908 73.1085 20.2448 71.9998 20.2448C70.8911 20.2448 70.0596 19.2908 70.0596 18.0189C70.0596 16.7469 70.8911 15.793 71.9998 15.793C73.0161 15.793 73.94 16.7469 73.94 18.0189Z" fill="#FFCF2D"/>
<path d="M90.4781 18.0189C90.4781 19.2908 89.6466 20.2448 88.5379 20.2448C87.4292 20.2448 86.5977 19.2908 86.5977 18.0189C86.5977 16.7469 87.4292 15.793 88.5379 15.793C89.6466 15.793 90.4781 16.7469 90.4781 18.0189Z" fill="#FFCF2D"/>
<path d="M106.924 18.0189C106.924 19.2908 106.092 20.2448 104.984 20.2448C103.875 20.2448 103.043 19.2908 103.043 18.0189C103.043 16.7469 103.875 15.793 104.984 15.793C106.092 15.793 106.924 16.7469 106.924 18.0189Z" fill="#FFCF2D"/>
<path d="M123.462 18.0189C123.462 19.2908 122.63 20.2448 121.522 20.2448C120.413 20.2448 119.582 19.2908 119.582 18.0189C119.582 16.7469 120.413 15.793 121.522 15.793C122.63 15.793 123.462 16.7469 123.462 18.0189Z" fill="#FFCF2D"/>
<path d="M140 18.0189C140 19.2908 139.169 20.2448 138.06 20.2448C136.951 20.2448 136.12 19.2908 136.12 18.0189C136.12 16.7469 136.951 15.793 138.06 15.793C139.076 15.793 140 16.7469 140 18.0189Z" fill="#FFCF2D"/>
<path d="M7.88043 65.1848C7.88043 66.4566 7.04891 67.4105 5.94022 67.4105C4.83152 67.4105 4 66.4566 4 65.1848C4 63.9129 4.83152 62.959 5.94022 62.959C7.04891 62.959 7.88043 64.0189 7.88043 65.1848Z" fill="#FFCF2D"/>
<path d="M24.4185 65.1847C24.4185 66.4565 23.587 67.4104 22.4783 67.4104C21.3696 67.4104 20.5381 66.4565 20.5381 65.1847C20.5381 63.9129 21.3696 62.959 22.4783 62.959C23.4946 62.959 24.4185 64.0188 24.4185 65.1847Z" fill="#FFCF2D"/>
<path d="M40.8643 65.1848C40.8643 66.4566 40.0328 67.4105 38.9241 67.4105C37.8154 67.4105 36.9839 66.4566 36.9839 65.1848C36.9839 63.9129 37.8154 62.959 38.9241 62.959C40.0328 62.959 40.8643 64.0189 40.8643 65.1848Z" fill="#FFCF2D"/>
<path d="M57.4024 65.1848C57.4024 66.4566 56.5709 67.4105 55.4622 67.4105C54.3535 67.4105 53.522 66.4566 53.522 65.1848C53.522 63.9129 54.3535 62.959 55.4622 62.959C56.5709 62.959 57.4024 64.0189 57.4024 65.1848Z" fill="#FFCF2D"/>
<path d="M73.94 65.1848C73.94 66.4566 73.1085 67.4105 71.9998 67.4105C70.8911 67.4105 70.0596 66.4566 70.0596 65.1848C70.0596 63.9129 70.8911 62.959 71.9998 62.959C73.0161 62.959 73.94 64.0189 73.94 65.1848Z" fill="#FFCF2D"/>
<path d="M90.4781 65.1848C90.4781 66.4566 89.6466 67.4105 88.5379 67.4105C87.4292 67.4105 86.5977 66.4566 86.5977 65.1848C86.5977 63.9129 87.4292 62.959 88.5379 62.959C89.6466 62.959 90.4781 64.0189 90.4781 65.1848Z" fill="#FFCF2D"/>
<path d="M106.924 65.1848C106.924 66.4566 106.092 67.4105 104.984 67.4105C103.875 67.4105 103.043 66.4566 103.043 65.1848C103.043 63.9129 103.875 62.959 104.984 62.959C106.092 62.959 106.924 64.0189 106.924 65.1848Z" fill="#FFCF2D"/>
<path d="M123.462 65.1848C123.462 66.4566 122.63 67.4105 121.522 67.4105C120.413 67.4105 119.582 66.4566 119.582 65.1848C119.582 63.9129 120.413 62.959 121.522 62.959C122.63 62.959 123.462 64.0189 123.462 65.1848Z" fill="#FFCF2D"/>
<path d="M140 65.1847C140 66.4565 139.169 67.4104 138.06 67.4104C136.951 67.4104 136.12 66.4565 136.12 65.1847C136.12 63.9129 136.951 62.959 138.06 62.959C139.076 62.959 140 64.0188 140 65.1847Z" fill="#FFCF2D"/>
<path d="M7.88043 80.9776C7.88043 82.2494 7.04891 83.2032 5.94022 83.2032C4.83152 83.2032 4 82.2494 4 80.9776C4 79.7058 4.83152 78.752 5.94022 78.752C7.04891 78.752 7.88043 79.7058 7.88043 80.9776Z" fill="#FFCF2D"/>
<path d="M24.4185 80.9777C24.4185 82.2495 23.587 83.2034 22.4783 83.2034C21.3696 83.2034 20.5381 82.2495 20.5381 80.9777C20.5381 79.7058 21.3696 78.752 22.4783 78.752C23.4946 78.752 24.4185 79.7058 24.4185 80.9777Z" fill="#FFCF2D"/>
<path d="M40.8643 80.9777C40.8643 82.2495 40.0328 83.2034 38.9241 83.2034C37.8154 83.2034 36.9839 82.2495 36.9839 80.9777C36.9839 79.7058 37.8154 78.752 38.9241 78.752C40.0328 78.752 40.8643 79.7058 40.8643 80.9777Z" fill="#FFCF2D"/>
<path d="M55.4622 83.2034C56.5337 83.2034 57.4024 82.2069 57.4024 80.9777C57.4024 79.7484 56.5337 78.752 55.4622 78.752C54.3906 78.752 53.522 79.7484 53.522 80.9777C53.522 82.2069 54.3906 83.2034 55.4622 83.2034Z" fill="#FFCF2D"/>
<path d="M73.94 80.9777C73.94 82.2495 73.1085 83.2034 71.9998 83.2034C70.8911 83.2034 70.0596 82.2495 70.0596 80.9777C70.0596 79.7058 70.8911 78.752 71.9998 78.752C73.0161 78.752 73.94 79.7058 73.94 80.9777Z" fill="#FFCF2D"/>
<path d="M90.4781 80.9777C90.4781 82.2495 89.6466 83.2034 88.5379 83.2034C87.4292 83.2034 86.5977 82.2495 86.5977 80.9777C86.5977 79.7058 87.4292 78.752 88.5379 78.752C89.6466 78.752 90.4781 79.7058 90.4781 80.9777Z" fill="#FFCF2D"/>
<path d="M106.924 80.9777C106.924 82.2495 106.092 83.2034 104.984 83.2034C103.875 83.2034 103.043 82.2495 103.043 80.9777C103.043 79.7058 103.875 78.752 104.984 78.752C106.092 78.752 106.924 79.7058 106.924 80.9777Z" fill="#FFCF2D"/>
<path d="M121.522 83.2032C122.593 83.2032 123.462 82.2068 123.462 80.9776C123.462 79.7484 122.593 78.752 121.522 78.752C120.45 78.752 119.582 79.7484 119.582 80.9776C119.582 82.2068 120.45 83.2032 121.522 83.2032Z" fill="#FFCF2D"/>
<path d="M140 80.9777C140 82.2495 139.169 83.2034 138.06 83.2034C136.951 83.2034 136.12 82.2495 136.12 80.9777C136.12 79.7058 136.951 78.752 138.06 78.752C139.076 78.752 140 79.7058 140 80.9777Z" fill="#FFCF2D"/>
<path d="M7.88045 96.7689C7.88045 98.0408 7.04892 98.9948 5.94022 98.9948C4.83152 98.9948 4 98.0408 4 96.7689C4 95.4969 4.83152 94.543 5.94022 94.543C7.04892 94.543 7.88045 95.4969 7.88045 96.7689Z" fill="#FFCF2D"/>
<path d="M24.4185 96.7689C24.4185 98.0408 23.587 98.9948 22.4783 98.9948C21.3696 98.9948 20.5381 98.0408 20.5381 96.7689C20.5381 95.4969 21.3696 94.543 22.4783 94.543C23.4946 94.543 24.4185 95.4969 24.4185 96.7689Z" fill="#FFCF2D"/>
<path d="M40.8643 96.7689C40.8643 98.0408 40.0328 98.9948 38.9241 98.9948C37.8154 98.9948 36.9839 98.0408 36.9839 96.7689C36.9839 95.4969 37.8154 94.543 38.9241 94.543C40.0328 94.543 40.8643 95.4969 40.8643 96.7689Z" fill="#FFCF2D"/>
<path d="M57.4024 96.7689C57.4024 98.0408 56.5709 98.9948 55.4622 98.9948C54.3535 98.9948 53.522 98.0408 53.522 96.7689C53.522 95.4969 54.3535 94.543 55.4622 94.543C56.5709 94.543 57.4024 95.4969 57.4024 96.7689Z" fill="#FFCF2D"/>
<path d="M73.94 96.7689C73.94 98.0408 73.1085 98.9948 71.9998 98.9948C70.8911 98.9948 70.0596 98.0408 70.0596 96.7689C70.0596 95.4969 70.8911 94.543 71.9998 94.543C73.0161 94.543 73.94 95.4969 73.94 96.7689Z" fill="#FFCF2D"/>
<path d="M90.4781 96.7689C90.4781 98.0408 89.6466 98.9948 88.5379 98.9948C87.4292 98.9948 86.5977 98.0408 86.5977 96.7689C86.5977 95.4969 87.4292 94.543 88.5379 94.543C89.6466 94.543 90.4781 95.4969 90.4781 96.7689Z" fill="#FFCF2D"/>
<path d="M106.924 96.7689C106.924 98.0408 106.092 98.9948 104.984 98.9948C103.875 98.9948 103.043 98.0408 103.043 96.7689C103.043 95.4969 103.875 94.543 104.984 94.543C106.092 94.543 106.924 95.4969 106.924 96.7689Z" fill="#FFCF2D"/>
<path d="M123.462 96.7689C123.462 98.0408 122.63 98.9948 121.522 98.9948C120.413 98.9948 119.582 98.0408 119.582 96.7689C119.582 95.4969 120.413 94.543 121.522 94.543C122.63 94.543 123.462 95.4969 123.462 96.7689Z" fill="#FFCF2D"/>
<path d="M140 96.7689C140 98.0408 139.169 98.9948 138.06 98.9948C136.951 98.9948 136.12 98.0408 136.12 96.7689C136.12 95.4969 136.951 94.543 138.06 94.543C139.076 94.543 140 95.4969 140 96.7689Z" fill="#FFCF2D"/>
<path d="M7.88043 112.456C7.88043 113.728 7.04891 114.682 5.94022 114.682C4.83152 114.682 4 113.728 4 112.456C4 111.184 4.83152 110.23 5.94022 110.23C7.04891 110.23 7.88043 111.29 7.88043 112.456Z" fill="#FFCF2D"/>
<path d="M24.4185 112.456C24.4185 113.728 23.587 114.682 22.4783 114.682C21.3696 114.682 20.5381 113.728 20.5381 112.456C20.5381 111.184 21.3696 110.23 22.4783 110.23C23.4946 110.23 24.4185 111.29 24.4185 112.456Z" fill="#FFCF2D"/>
<path d="M40.8643 112.456C40.8643 113.728 40.0328 114.682 38.9241 114.682C37.8154 114.682 36.9839 113.728 36.9839 112.456C36.9839 111.184 37.8154 110.23 38.9241 110.23C40.0328 110.23 40.8643 111.29 40.8643 112.456Z" fill="#FFCF2D"/>
<path d="M57.4024 112.456C57.4024 113.728 56.5709 114.682 55.4622 114.682C54.3535 114.682 53.522 113.728 53.522 112.456C53.522 111.184 54.3535 110.23 55.4622 110.23C56.5709 110.23 57.4024 111.29 57.4024 112.456Z" fill="#FFCF2D"/>
<path d="M73.94 112.456C73.94 113.728 73.1085 114.682 71.9998 114.682C70.8911 114.682 70.0596 113.728 70.0596 112.456C70.0596 111.184 70.8911 110.23 71.9998 110.23C73.0161 110.23 73.94 111.29 73.94 112.456Z" fill="#FFCF2D"/>
<path d="M90.4781 112.456C90.4781 113.728 89.6465 114.682 88.5379 114.682C87.4292 114.682 86.5977 113.728 86.5977 112.456C86.5977 111.184 87.4292 110.23 88.5379 110.23C89.6465 110.23 90.4781 111.29 90.4781 112.456Z" fill="#FFCF2D"/>
<path d="M106.924 112.456C106.924 113.728 106.092 114.682 104.984 114.682C103.875 114.682 103.043 113.728 103.043 112.456C103.043 111.184 103.875 110.23 104.984 110.23C106.092 110.23 106.924 111.29 106.924 112.456Z" fill="#FFCF2D"/>
<path d="M123.462 112.456C123.462 113.728 122.63 114.682 121.522 114.682C120.413 114.682 119.582 113.728 119.582 112.456C119.582 111.184 120.413 110.23 121.522 110.23C122.63 110.23 123.462 111.29 123.462 112.456Z" fill="#FFCF2D"/>
<path d="M140 112.456C140 113.728 139.169 114.682 138.06 114.682C136.951 114.682 136.12 113.728 136.12 112.456C136.12 111.184 136.951 110.23 138.06 110.23C139.076 110.23 140 111.29 140 112.456Z" fill="#FFCF2D"/>
</g>
<defs>
<filter id="filter0_d_2355_2275" x="0" y="0" width="144" height="122.682" filterUnits="userSpaceOnUse" color-interpolation-filters="sRGB">
<feFlood flood-opacity="0" result="BackgroundImageFix"/>
<feColorMatrix in="SourceAlpha" type="matrix" values="0 0 0 0 0 0 0 0 0 0 0 0 0 0 0 0 0 0 127 0" result="hardAlpha"/>
<feOffset dy="4"/>
<feGaussianBlur stdDeviation="2"/>
<feComposite in2="hardAlpha" operator="out"/>
<feColorMatrix type="matrix" values="0 0 0 0 0 0 0 0 0 0 0 0 0 0 0 0 0 0 0.25 0"/>
<feBlend mode="normal" in2="BackgroundImageFix" result="effect1_dropShadow_2355_2275"/>
<feBlend mode="normal" in="SourceGraphic" in2="effect1_dropShadow_2355_2275" result="shape"/>
</filter>
</defs>
</svg>
